<svg width="20" height="20" viewBox="0 0 20 20" fill="none" xmlns="http://www.w3.org/2000/svg">
<g clip-path="url(#clip0_5499_175)">
<path d="M9.325 1.13333L3.49167 3.72499C2.89167 3.99166 2.5 4.59166 2.5 5.24999V9.16666C2.5 13.7917 5.7 18.1167 10 19.1667C14.3 18.1167 17.5 13.7917 17.5 9.16666V5.24999C17.5 4.59166 17.1083 3.99166 16.5083 3.72499L10.675 1.13333C10.25 0.941662 9.75 0.941662 9.325 1.13333ZM7.74167 13.575L5.58333 11.4167C5.25833 11.0917 5.25833 10.5667 5.58333 10.2417C5.90833 9.91666 6.43333 9.91666 6.75833 10.2417L8.33333 11.8083L13.2333 6.90833C13.5583 6.58333 14.0833 6.58333 14.4083 6.90833C14.7333 7.23333 14.7333 7.75833 14.4083 8.08333L8.91667 13.575C8.6 13.9 8.06667 13.9 7.74167 13.575Z" fill="#7984C0"/>
</g>
<defs>
<clipPath id="clip0_5499_175">
<rect width="20" height="20" fill="white"/>
</clipPath>
</defs>
</svg>
